<svg width="97" height="86" viewBox="0 0 97 86" fill="none" xmlns="http://www.w3.org/2000/svg">
<path d="M82.1 24.1111V14.6667H72.5V9.94444H82.1V0.5H86.9V9.94444H96.5V14.6667H86.9V24.1111H82.1ZM43.7 70.0583C48.7144 70.0583 52.9528 68.3568 56.4152 64.9536C59.8776 61.5505 61.6088 57.3807 61.6088 52.4444C61.6088 47.5081 59.8776 43.3384 56.4152 39.9353C52.9528 36.5321 48.7144 34.829 43.7 34.8258C38.6856 34.8227 34.4472 36.5258 30.9848 39.9353C27.5224 43.3447 25.7912 47.5144 25.7912 52.4444C25.7912 57.3744 27.5224 61.5442 30.9848 64.9536C34.4472 68.3631 38.6856 70.0662 43.7 70.0631M43.7 65.3408C39.972 65.3408 36.8552 64.1083 34.3496 61.6433C31.844 59.1783 30.5912 56.112 30.5912 52.4444C30.5912 48.7768 31.844 45.7106 34.3496 43.2456C36.8552 40.7806 39.972 39.5481 43.7 39.5481C47.428 39.5481 50.5448 40.7806 53.0504 43.2456C55.556 45.7106 56.8088 48.7768 56.8088 52.4444C56.8088 56.112 55.556 59.1783 53.0504 61.6433C50.5448 64.1083 47.428 65.3408 43.7 65.3408ZM8.2568 85.5C6.0456 85.5 4.2008 84.7728 2.7224 83.3183C1.244 81.8639 0.5032 80.0474 0.5 77.8689V27.02C0.5 24.8446 1.2408 23.0297 2.7224 21.5753C4.204 20.1208 6.0488 19.392 8.2568 19.3889H22.4504L31.3304 9.94444H61.0568V25.9292H70.6568V35.3736H86.9V77.8736C86.9 80.0458 86.1608 81.8607 84.6824 83.3183C83.204 84.7759 81.3576 85.5031 79.1432 85.5H8.2568Z" fill="black" fill-opacity="0.6"/>
</svg>
