<svg width="30" height="30" viewBox="0 0 30 30" fill="none" xmlns="http://www.w3.org/2000/svg">
<rect width="30" height="30" rx="5" fill="#F5F5F5"/>
<path d="M20.4444 8H9.54778C8.69222 8 8 8.7 8 9.55556L8.00778 20.4444C8.00778 21.3 8.7 22 9.55556 22H17.3333L22 17.3333V9.55556C22 8.7 21.3 8 20.4444 8ZM11.8889 11.8889H18.1111C18.5389 11.8889 18.8889 12.2389 18.8889 12.6667C18.8889 13.0944 18.5389 13.4444 18.1111 13.4444H11.8889C11.4611 13.4444 11.1111 13.0944 11.1111 12.6667C11.1111 12.2389 11.4611 11.8889 11.8889 11.8889ZM14.2222 16.5556H11.8889C11.4611 16.5556 11.1111 16.2056 11.1111 15.7778C11.1111 15.35 11.4611 15 11.8889 15H14.2222C14.65 15 15 15.35 15 15.7778C15 16.2056 14.65 16.5556 14.2222 16.5556ZM16.5556 20.8333V17.3333C16.5556 16.9056 16.9056 16.5556 17.3333 16.5556H20.8333L16.5556 20.8333Z" fill="#1A1A1A"/>
</svg>
