<svg width="34" height="44" viewBox="0 0 34 44" fill="none" xmlns="http://www.w3.org/2000/svg">
<path d="M17 1.02979C12.7565 1.02979 8.68687 2.71549 5.68629 5.71608C2.68571 8.71666 1 12.7863 1 17.0298V18.1958C1.64777 26.9623 8.92443 34.0122 17 43.1351C25.4318 33.6128 33 26.4009 33 17.0298C33 12.7863 31.3143 8.71666 28.3137 5.71608C25.3131 2.71549 21.2435 1.02979 17 1.02979ZM17 9.34288C18.5229 9.34288 20.0116 9.79461 21.2777 10.6409C22.5439 11.4872 23.5305 12.6901 24.1128 14.0973C24.6951 15.5045 24.8469 17.0528 24.549 18.5463C24.2511 20.0398 23.5169 21.4114 22.4393 22.4875C21.3616 23.5636 19.989 24.2959 18.4951 24.5917C17.0012 24.8875 15.4531 24.7335 14.0467 24.1492C12.6403 23.565 11.4389 22.5766 10.5943 21.3093C9.7498 20.042 9.30016 18.5527 9.30229 17.0298C9.30516 14.9901 10.1174 13.0349 11.5607 11.5937C13.004 10.1524 14.9603 9.34287 17 9.34288Z" stroke="#163659" stroke-width="1.5" stroke-linecap="round" stroke-linejoin="round"/>
</svg>
