<svg width="30" height="30" viewBox="0 0 30 30" fill="none" xmlns="http://www.w3.org/2000/svg">
<rect width="30" height="30" rx="5" fill="#F5F5F5"/>
<path d="M20.4444 8H9.55556C8.7 8 8 8.7 8 9.55556V20.4444C8 21.3 8.7 22 9.55556 22H20.4444C21.3 22 22 21.3 22 20.4444V9.55556C22 8.7 21.3 8 20.4444 8ZM11.8889 18.8889C11.4611 18.8889 11.1111 18.5389 11.1111 18.1111V15.7778C11.1111 15.35 11.4611 15 11.8889 15C12.3167 15 12.6667 15.35 12.6667 15.7778V18.1111C12.6667 18.5389 12.3167 18.8889 11.8889 18.8889ZM15 18.8889C14.5722 18.8889 14.2222 18.5389 14.2222 18.1111V17.3333C14.2222 16.9056 14.5722 16.5556 15 16.5556C15.4278 16.5556 15.7778 16.9056 15.7778 17.3333V18.1111C15.7778 18.5389 15.4278 18.8889 15 18.8889ZM15 15C14.5722 15 14.2222 14.65 14.2222 14.2222C14.2222 13.7944 14.5722 13.4444 15 13.4444C15.4278 13.4444 15.7778 13.7944 15.7778 14.2222C15.7778 14.65 15.4278 15 15 15ZM18.1111 18.8889C17.6833 18.8889 17.3333 18.5389 17.3333 18.1111V11.8889C17.3333 11.4611 17.6833 11.1111 18.1111 11.1111C18.5389 11.1111 18.8889 11.4611 18.8889 11.8889V18.1111C18.8889 18.5389 18.5389 18.8889 18.1111 18.8889Z" fill="#1A1A1A"/>
</svg>
