<svg width="30" height="30" viewBox="0 0 30 30" fill="none" xmlns="http://www.w3.org/2000/svg">
<rect width="30" height="30" rx="5" fill="white"/>
<path d="M16.6691 13.7556L12.8055 10.9789C12.2645 10.59 11.5459 10.59 11.0127 10.9789L7.14909 13.7556C6.73955 14.0511 6.5 14.5178 6.5 15.0233V21.2222C6.5 21.65 6.84773 22 7.27273 22H10.3636V17.3333H13.4545V22H16.5455C16.9705 22 17.3182 21.65 17.3182 21.2222V15.0233C17.3182 14.5178 17.0786 14.0511 16.6691 13.7556Z" fill="#A00E07"/>
<path d="M21.9777 8H14.9768C14.1345 8 13.4545 8.68444 13.4545 9.53222L13.5241 9.60222C13.5859 9.64111 13.6477 9.67222 13.7095 9.71111L17.5732 12.4878C18.1605 12.9078 18.5777 13.53 18.7632 14.2222H20.4091V15.7778H18.8636V17.3333H20.4091V18.8889H18.8636V22H21.9777C22.82 22 23.5 21.3156 23.5 20.4678V9.53222C23.5 8.68444 22.82 8 21.9777 8ZM20.4091 12.6667H18.8636V11.1111H20.4091V12.6667Z" fill="#A00E07"/>
</svg>
