<svg width="46" height="46" viewBox="0 0 46 46" fill="none" xmlns="http://www.w3.org/2000/svg">
<rect x="0.5" y="0.5" width="45" height="45" rx="3.5" stroke="#323232"/>
<path d="M21.1549 25.7728L21.1459 25.7518C21.0107 25.7148 20.8766 25.6738 20.7439 25.6288L20.7339 25.6248C19.3525 25.1522 18.1534 24.2594 17.3045 23.0714C16.4557 21.8835 15.9995 20.4599 15.9999 18.9998C15.9995 17.2079 16.6862 15.4841 17.9187 14.1834C19.1512 12.8826 20.8356 12.1041 22.6249 12.0081C24.4142 11.9121 26.1722 12.5059 27.5368 13.6673C28.9014 14.8287 29.7686 16.4691 29.9599 18.2508C30.0039 18.6628 29.6639 18.9998 29.2499 18.9998C28.8359 18.9998 28.5049 18.6618 28.4499 18.2518C28.3169 17.2841 27.9286 16.3692 27.3249 15.6012C26.7212 14.8333 25.924 14.2399 25.015 13.8821C24.1061 13.5243 23.1183 13.415 22.1531 13.5654C21.1879 13.7159 20.2802 14.1206 19.5232 14.738C18.7662 15.3554 18.1873 16.1632 17.846 17.0785C17.5046 17.9937 17.4131 18.9833 17.5809 19.9457C17.7487 20.908 18.1697 21.8083 18.8006 22.554C19.4315 23.2997 20.2497 23.864 21.1709 24.1888C21.3565 23.7693 21.6806 23.4264 22.089 23.2175C22.4973 23.0085 22.9651 22.9463 23.4138 23.0413C23.8626 23.1362 24.2651 23.3825 24.5538 23.7389C24.8426 24.0953 25.0001 24.5401 24.9999 24.9988C24.9999 25.5968 24.7379 26.1328 24.3229 26.4988C23.9577 26.8214 23.4872 26.9995 22.9999 26.9998C22.6054 27.0012 22.2193 26.8853 21.8908 26.6668C21.5623 26.4484 21.3062 26.1372 21.1549 25.7728ZM18.9969 26.4998C18.2599 26.1059 17.5849 25.6056 16.9939 25.0148C16.446 25.0785 15.9407 25.3413 15.5738 25.7531C15.2069 26.165 15.0041 26.6972 15.0039 27.2488V27.8268C15.0039 28.7188 15.3219 29.5828 15.9019 30.2618C17.4679 32.0958 19.8539 33.0018 22.9999 33.0018C26.1459 33.0018 28.5329 32.0958 30.1019 30.2618C30.6833 29.5825 31.0028 28.7179 31.0029 27.8238V27.2488C31.0029 26.6524 30.7661 26.0804 30.3446 25.6585C29.9231 25.2366 29.3513 24.9993 28.7549 24.9988H26.4999C26.4999 25.5368 26.3799 26.0448 26.1629 26.4988H28.7549C28.9535 26.4993 29.1437 26.5786 29.2839 26.7192C29.4242 26.8598 29.5029 27.0502 29.5029 27.2488V27.8238C29.5031 28.3602 29.3116 28.8791 28.9629 29.2868C27.7059 30.7548 25.7389 31.5008 22.9999 31.5008C20.2609 31.5008 18.2959 30.7548 17.0429 29.2878C16.6945 28.8804 16.503 28.3619 16.5029 27.8258V27.2488C16.5029 27.0499 16.5819 26.8591 16.7226 26.7185C16.8632 26.5778 17.054 26.4988 17.2529 26.4988L18.9969 26.4998ZM18.9999 18.9998C19.0001 18.3098 19.1787 17.6317 19.5185 17.0312C19.8582 16.4307 20.3475 15.9283 20.9388 15.5727C21.5301 15.2172 22.2033 15.0207 22.893 15.0023C23.5827 14.9839 24.2655 15.1441 24.8749 15.4675C25.4844 15.791 25.9998 16.2665 26.3712 16.848C26.7425 17.4295 26.9571 18.0972 26.9941 18.7861C27.0312 19.4751 26.8894 20.1619 26.5825 20.7799C26.2757 21.3978 25.8142 21.9259 25.2429 22.3128C24.6135 21.7875 23.8197 21.4997 22.9999 21.4998C23.6629 21.4998 24.2988 21.2364 24.7677 20.7676C25.2365 20.2987 25.4999 19.6628 25.4999 18.9998C25.4999 18.3368 25.2365 17.7009 24.7677 17.232C24.2988 16.7632 23.6629 16.4998 22.9999 16.4998C22.3369 16.4998 21.701 16.7632 21.2321 17.232C20.7633 17.7009 20.4999 18.3368 20.4999 18.9998C20.4999 19.6628 20.7633 20.2987 21.2321 20.7676C21.701 21.2364 22.3369 21.4998 22.9999 21.4998C22.1459 21.4998 21.3639 21.8058 20.7579 22.3128C20.2158 21.9469 19.7719 21.4534 19.4654 20.8757C19.1588 20.298 18.999 19.6538 18.9999 18.9998Z" fill="#323232"/>
</svg>
