<svg width="20" height="26" viewBox="0 0 20 26" fill="none" xmlns="http://www.w3.org/2000/svg">
<path d="M10 0.983398C7.61305 0.983398 5.32387 1.94425 3.63604 3.65458C1.94821 5.36492 1 7.68462 1 10.1034V10.768C1.36437 15.7649 5.45749 19.7834 10 24.9834C14.7429 19.5557 19 15.4449 19 10.1034C19 7.68462 18.0518 5.36492 16.364 3.65458C14.6761 1.94425 12.3869 0.983398 10 0.983398ZM10 5.72186C10.8566 5.72186 11.694 5.97935 12.4062 6.46175C13.1184 6.94415 13.6734 7.62978 14.0009 8.43188C14.3285 9.23398 14.4139 10.1165 14.2463 10.9678C14.0787 11.8191 13.6658 12.6009 13.0596 13.2143C12.4534 13.8277 11.6813 14.2451 10.841 14.4137C10.0007 14.5823 9.12987 14.4945 8.33878 14.1615C7.54769 13.8284 6.87187 13.2651 6.39682 12.5427C5.92176 11.8204 5.66884 10.9715 5.67004 10.1034C5.67165 8.94078 6.12855 7.82633 6.9404 7.00481C7.75225 6.18329 8.85267 5.72186 10 5.72186Z" stroke="#163659" stroke-width="1.5" stroke-linecap="round" stroke-linejoin="round"/>
</svg>
