<svg width="20" height="26" viewBox="0 0 20 26" fill="none" xmlns="http://www.w3.org/2000/svg">
<path d="M10 0.984375C7.61305 0.984375 5.32387 1.94523 3.63604 3.65556C1.94821 5.36589 1 7.6856 1 10.1044V10.769C1.36437 15.7659 5.45749 19.7844 10 24.9844C14.7429 19.5567 19 15.4459 19 10.1044C19 7.6856 18.0518 5.36589 16.364 3.65556C14.6761 1.94523 12.3869 0.984375 10 0.984375ZM10 5.72284C10.8566 5.72284 11.694 5.98033 12.4062 6.46273C13.1184 6.94512 13.6734 7.63075 14.0009 8.43286C14.3285 9.23496 14.4139 10.1175 14.2463 10.9688C14.0787 11.8201 13.6658 12.6019 13.0596 13.2153C12.4534 13.8287 11.6813 14.2461 10.841 14.4147C10.0007 14.5833 9.12987 14.4955 8.33878 14.1625C7.54769 13.8294 6.87187 13.2661 6.39682 12.5437C5.92176 11.8214 5.66884 10.9724 5.67004 10.1044C5.67165 8.94175 6.12855 7.82731 6.9404 7.00579C7.75225 6.18426 8.85267 5.72284 10 5.72284Z" stroke="#00246B" stroke-width="1.5" stroke-linecap="round" stroke-linejoin="round"/>
</svg>
