<svg width="28" height="29" viewBox="0 0 28 29" fill="none" xmlns="http://www.w3.org/2000/svg">
<path d="M3.85858e-05 0.983398H11.44L13.4227 9.90339L10.9427 12.3834C12.4009 14.6527 14.3303 16.5817 16.6 18.0394L19.08 15.5607L28 17.5434V28.9834H26.6667C21.5338 28.9921 16.5085 27.5119 12.2 24.722C9.02299 22.666 6.31742 19.9604 4.26137 16.7834C1.47153 12.4749 -0.00871336 7.44962 3.85858e-05 2.31673V0.983398ZM2.7027 3.65006C2.92738 7.80994 4.237 11.8386 6.50136 15.3354C8.35246 18.1953 10.7881 20.6309 13.648 22.482C17.1448 24.7464 21.1735 26.056 25.3333 26.2807V19.682L19.9293 18.482L17.0307 21.382L16.1467 20.8794C12.7902 18.972 10.0114 16.1932 8.10403 12.8367L7.60136 11.9527L10.5014 9.05406L9.30136 3.65006H2.7027Z" fill="black" fill-opacity="0.4"/>
</svg>
